# xmcd
# 
# Track frame offsets:
#     150
#     25784
#     50951
#     82088
#     105354
#     123980
#     150042
#     170995
#     207573
#     238888
#     255832
#     285524
# 
# Disc length: 4345
# 
# Revision: 0
# Processed by: cddbd v1.5.2PL0 Copyright (c) Steve Scherf et al.
# Submitted via: fre:ac v1.0.17
# 
DISCID=9f10f70c
DTITLE=Gov't Mule -  High and Mighty
DYEAR=2006
DGENRE=Blues
TTITLE0=3 String George
TTITLE1=Mr. High and Mighty
TTITLE2=Brand New Angel
TTITLE3=So Weak, So Strong
TTITLE4=Streamline Woman
TTITLE5=Child of the Earth
TTITLE6=Like Flies
TTITLE7=Unring The Bell
TTITLE8=Nothing Again
TTITLE9=Million Miles From Yesterday
TTITLE10=Brighter Days
TTITLE11=Endless Parade
EXTD=
EXTT0=
EXTT1=
EXTT2=
EXTT3=
EXTT4=
EXTT5=
EXTT6=
EXTT7=
EXTT8=
EXTT9=
EXTT10=
EXTT11=
PLAYORDER=
